<svg width="140" height="140" viewBox="0 0 140 140" fill="none" xmlns="http://www.w3.org/2000/svg">
<path d="M135.5 69.75C135.5 78.3844 133.799 86.9343 130.495 94.9114C127.191 102.889 122.348 110.137 116.242 116.242C110.137 122.348 102.889 127.191 94.9114 130.495C86.9343 133.799 78.3844 135.5 69.75 135.5C61.1156 135.5 52.5657 133.799 44.5886 130.495C36.6114 127.191 29.3632 122.348 23.2577 116.242C17.1523 110.137 12.3092 102.889 9.00491 94.9114C5.70067 86.9343 4 78.3844 4 69.75C4 61.1156 5.70068 52.5657 9.00493 44.5885C12.3092 36.6114 17.1523 29.3632 23.2577 23.2577C29.3632 17.1523 36.6114 12.3092 44.5886 9.00491C52.5658 5.70067 61.1156 4 69.75 4C78.3844 4 86.9343 5.70068 94.9115 9.00493C102.889 12.3092 110.137 17.1523 116.242 23.2578C122.348 29.3632 127.191 36.6114 130.495 44.5886C133.799 52.5658 135.5 61.1156 135.5 69.75L135.5 69.75Z" stroke="url(#paint0_angular_470_8905)" stroke-width="8" stroke-linecap="round" stroke-linejoin="round" stroke-dasharray="0.5 9"/>
<defs>
<radialGradient id="paint0_angular_470_8905" cx="0" cy="0" r="1" gradientUnits="userSpaceOnUse" gradientTransform="translate(69.75 69.75) rotate(169.077) scale(65.8086)">
<stop stop-color="#FF4A22" stop-opacity="0"/>
<stop offset="1" stop-color="#FF4A22"/>
</radialGradient>
</defs>
</svg>
